#!OML:ASF F:\VICON\USERDATA\INSTALL\rory3\rory3.ASF
:FULLY-SPECIFIED
:DEGREES
36
root 0.6523386558464448 17.821196624695467 -0.9828367856348397 -1.0731900338536846 1.661519227855953 3.296327020484339
lfemur 14.026255984332494 -2.2891694114759398 -26.65512686765886
ltibia 18.804227581589977
lfoot -5.337164016936603 -2.394064071464336
ltoes -8.242198929364866
rfemur -27.39474280678024 4.272747688530786 18.7670826925729
rtibia 24.031199801860005
rfoot -3.5498632853450136 -8.423760941250912
rtoes 1.374941704036698
lowerback 9.199621247752248 -1.46088652798508 -4.450546102882272
upperback 0.6607663492072322 -2.316223322808453 1.7486357875656693
thorax -4.44811125647077 -1.0648005818987931 4.234099947303481
lowerneck -16.747263298160497 -2.6982654113007083 -3.061438216047697
upperneck 21.990756965208163 -3.2164485296702336 0.7892890340346563
head 9.705470134585655 -1.5922871848102735 0.30995100575800383
lclavicle -1.9552379497465388e-15 9.045326078666764e-16
lhumerus -23.980681112595747 -2.1107848214688447 82.75874854536097
lradius 31.619171793007833
lwrist 6.4470954026764105
lhand -27.346266244116645 26.570222015424537
lfingers 7.12502
lthumb -0.8636176206844745 56.41944604963636
rclavicle -1.952749076590388e-15 9.072248125117447e-16
rhumerus -32.817675922964426 -24.277089361962908 -75.69645717055491
rradius 23.061372474927133
rwrist 8.381524265030647
rhand -17.716868781215087 21.7309721372682
rfingers 7.12502
rthumb 8.570153951010251 -8.741152674443883
37
root 0.5776790100211397 17.917853974202444 -0.11683681287604308 -1.172878297252496 0.9429699109534084 1.1172075387801308
lfemur 12.628077376122157 -2.690984864608261 -24.235439046643506
ltibia 25.712966123025556
lfoot -3.5313130124596754 -2.771107138404534
ltoes -9.389625360830923
rfemur -26.12518481379815 4.79422172989383 21.461584225349362
rtibia 27.12809198706355
rfoot -2.4739709396256586 -4.893429750844805
rtoes 6.263855460829474
lowerback 9.402620644487444 -1.4129406942236615 -2.68017949339169
upperback 0.6865773540403555 -2.0716412195150875 2.31014486359531
thorax -4.471085428945398 -0.9671444169655881 4.04482859821992
lowerneck -16.653382690243948 -2.6172870145137357 -2.9165258745273395
upperneck 21.8983660957496 -3.101427907428338 0.5694452671546413
head 9.649535330151652 -1.5556725119978196 0.24685626397773358
lclavicle -1.9527192746812604e-15 9.065946947257398e-16
lhumerus -25.19186649177561 -1.5544907980099525 82.98477997488256
lradius 30.91135232844427
lwrist 6.264218076063847
lhand -27.626713274375955 25.87236436993703
lfingers 7.12502
lthumb -1.1792418515974725 55.68083983408884
rclavicle -1.950513992708479e-15 9.092838537164446e-16
rhumerus -32.667665076066484 -24.599387093830238 -75.24679642063468
rradius 22.45275117325057
rwrist 9.177849387715987
rhand -17.793488430626457 21.894056500501453
rfingers 7.12502
rthumb 8.463076243013843 -8.32808709993194
38
root 0.5088183892668142 17.960821517366018 0.6682701168069922 -1.130553749395567 -0.578133898429015 0.3755087748985919
lfemur 10.245090418479261 -1.762720670634728 -22.759314035142012
ltibia 33.45857191659199
lfoot -2.184631612858651 -7.713282218245002
ltoes -14.73179340075651
rfemur -25.020774268643258 4.427971178670551 23.540237548409245
rtibia 30.525906153875766
rfoot -3.240744746821913 -3.6257309610937427
rtoes 10.939065109563504
lowerback 9.506933319521469 -1.0798535987635542 -1.935412927716616
upperback 0.71148370364029 -1.6171239627961649 2.5785561753166792
thorax -4.535729168219987 -0.7666498836724773 3.719582062026785
lowerneck -16.47340400878413 -2.5835211999397085 -2.8373487940725255
upperneck 21.74093056325441 -3.0427586851102766 0.48908165729868225
head 9.561754214006626 -1.5336496144642247 0.2184451232644703
lclavicle -1.9525827609701086e-15 9.068965876583925e-16
lhumerus -26.409881657769777 -1.6940336899277588 83.20073124481158
lradius 30.350585214634624
lwrist 6.462666800231535
lhand -27.530871474691995 25.209970550965785
lfingers 7.12502
lthumb -1.0504954231707189 55.03855657383587
rclavicle -1.950405588802407e-15 9.093834275641328e-16
rhumerus -32.105656969272516 -23.905526290308757 -75.50944924834225
rradius 22.216177125897328
rwrist 9.25909794019992
rhand -17.849154663076806 22.066618942109905
rfingers 7.12502
rthumb 8.42316803731307 -7.876994532736868
39
root 0.41121450065947984 18.039328724814474 1.07181270578387 -1.6741278835778939 -1.0431520210755871 -0.6174293922389715
lfemur 6.483432458074088 -1.1064971669268324 -20.657947109930948
ltibia 42.28235679846751
lfoot 3.4972102164582184 -11.27812972409987
ltoes -14.197808450789847
rfemur -23.286518999436616 4.447637890455174 25.10114920946571
rtibia 32.54618106895189
rfoot -4.470797225553341 -3.893761344790746
rtoes 11.96620089879992
lowerback 9.942748587047182 -0.8184247715115703 -1.3428713951953875
upperback 0.6926122680815512 -1.1952463854649977 2.7577267621165618
thorax -4.608440229223013 -0.5790641634154194 3.2887658646089517
lowerneck -16.42686593727688 -2.5824029910639026 -2.696192148751906
upperneck 21.574307769787996 -3.042343144867543 0.4658003553747926
head 9.51132064545768 -1.5344784621809926 0.19398113357406502
lclavicle -1.956980675992496e-15 9.034344984669973e-16
lhumerus -27.423228955709515 -1.9179034069914576 83.33769564186643
lradius 29.748455435197037
lwrist 6.341387800447755
lhand -27.18946755430025 25.055093141771497
lfingers 7.12502
lthumb -0.651824488091987 54.8761631899465
rclavicle -1.949195468971519e-15 9.104976363321953e-16
rhumerus -31.038115452484547 -22.351877467235344 -76.45414727980199
rradius 22.30684018968522
rwrist 8.594094364794508
rhand -17.912366157901324 21.935051067343736
rfingers 7.12502
rthumb 8.417933180438665 -7.8655836952068
